<?xml version="1.0" encoding="utf-8"?>
<!DOCTYPE svg PUBLIC "-//W3C//DTD SVG 1.1//EN" "http://www.w3.org/Graphics/SVG/1.1/DTD/svg11.dtd">
<svg version="1.1" xmlns="http://www.w3.org/2000/svg" xmlns:xlink="http://www.w3.org/1999/xlink" x="0px" y="0px" viewBox="0 0 1000 1000" enable-background="new 0 0 1000 1000" xml:space="preserve">
<metadata> Svg Vector Icons : http://www.onlinewebfonts.com/icon </metadata>
<g><path d="M99.1,811.8V143.7c0-12.3,10-22.3,22.3-22.3h712.7c12.3,0,22.3,10,22.3,22.3v423.2h89.1v-490c0-24.6-19.9-44.5-44.5-44.5H54.5C29.9,32.3,10,52.2,10,76.8v801.8c0,24.6,19.9,44.5,44.5,44.5h490v-89.1H121.4C109.1,834.1,99.1,824.1,99.1,811.8z M978.9,700.4H811.8v-167c0-6.2-5-11.1-11.1-11.1h-66.8c-6.2,0-11.1,5-11.1,11.1v167h-167c-6.2,0-11.1,5-11.1,11.1v66.8c0,6.1,5,11.1,11.1,11.1h167v167c0,6.1,5,11.1,11.1,11.1h66.8c6.2,0,11.1-5,11.1-11.1v-167h167.1c6.2,0,11.1-5,11.1-11.1v-66.8C990,705.4,985,700.4,978.9,700.4z M538.6,278.5c-4.1,6.2-40.4,60.9-75.6,114.4c-51.4-84.8-119.6-197.3-128.4-211.8c-9.2-15.2-31.2-14.9-40.4,0C283.8,197.7,119,469.3,107.5,489c-8.4,14.4,0.9,33.3,20,33.3h571.7c13.5,0,23.5-12.2,15.6-24.3c-6.3-9.7-133.9-202.9-144.8-219.5C562.9,267.7,545.8,267.9,538.6,278.5z"/></g>
</svg>